<svg width="24" height="24" viewBox="0 0 24 24" fill="none" xmlns="http://www.w3.org/2000/svg">
<path d="M5.40633 3.67198V2.57788C5.40633 2.28298 5.16705 2.0437 4.87215 2.0437C4.5771 2.0437 4.33828 2.28298 4.33828 2.57788V13.4278C4.33828 13.471 4.34476 13.5126 4.35424 13.5529C4.35363 14.4426 4.35333 15.3328 4.35307 16.1799H3.97379C3.17143 16.1799 2.51504 16.8098 2.46849 17.6008C2.46911 17.649 2.46972 17.6855 2.47033 17.7093C2.47063 17.7238 2.46819 17.7373 2.46732 17.7515C2.49975 18.5556 3.16225 19.1998 3.97384 19.1998H4.35404C4.35435 19.6003 4.35496 19.9605 4.35557 20.2682H3.89298C3.86524 20.2682 3.83873 20.2642 3.8116 20.2601C2.46543 20.176 1.39525 19.0573 1.39525 17.69C1.39525 17.659 1.39887 17.6289 1.39974 17.5978C1.38347 16.0114 1.39974 3.94679 1.40172 2.63376C1.39948 2.6152 1.39586 2.59715 1.39586 2.57813C1.39576 1.1565 2.55242 0 3.9741 0H4.8277H17.7805H17.911C18.206 0 18.4453 0.239122 18.4453 0.534175V2.58196H8.0021C6.98729 2.58129 6.06797 2.99978 5.40633 3.67198ZM6.62988 21.3323C6.63049 21.3805 6.63105 21.4173 6.63166 21.4408C6.63166 21.4552 6.62927 21.4691 6.62866 21.4836C6.66103 22.287 7.32359 22.9316 8.13548 22.9316H21.5391V21.4552C21.5391 21.1599 21.7783 20.9209 22.0734 20.9209C22.3684 20.9209 22.6074 21.16 22.6074 21.4552V23.466C22.6074 23.7607 22.3684 24 22.0734 24H8.05472C8.02653 24 8.00001 23.9961 7.97319 23.9915C6.62718 23.9075 5.55684 22.7888 5.55684 21.4218C5.55684 21.3908 5.56061 21.3604 5.56153 21.3293C5.54511 19.743 5.56153 7.67852 5.56336 6.36544C5.56122 6.34657 5.55745 6.32868 5.55745 6.30951C5.55745 4.88813 6.71411 3.73153 8.13579 3.73153H8.98939H21.9423H22.0731C22.3681 3.73153 22.6071 3.97065 22.6071 4.2657V19.3632C22.6071 19.6579 22.3681 19.8972 22.0731 19.8972C22.07 19.8972 22.0667 19.8963 22.0637 19.8963C22.0245 19.9057 21.9839 19.9117 21.9416 19.9117H8.13518C7.33277 19.9117 6.67643 20.5415 6.62988 21.3323ZM8.49967 17.1593C8.49967 17.4544 8.73879 17.6937 9.03385 17.6937C9.32885 17.6937 9.56802 17.4544 9.56802 17.1593V6.30946C9.56802 6.0144 9.3289 5.77528 9.03385 5.77528C8.73879 5.77528 8.49967 6.0144 8.49967 6.30946V17.1593Z" fill="#1C1C1C"/>
</svg>
