<svg width="24" height="24" viewBox="0 0 24 24" fill="none" xmlns="http://www.w3.org/2000/svg">
<g clip-path="url(#clip0_103_3892)">
<path d="M21.2821 0.623417C20.8968 0.225137 20.3666 0 19.8125 0H5.89258C7.05819 0.594404 7.90696 1.8342 7.90696 3.17015C7.90696 4.25835 7.44441 5.22784 6.6854 5.89348H21.0613C21.8195 5.22748 22.2995 4.22309 22.2995 3.13425C22.2995 2.15751 21.9112 1.27455 21.2821 0.623417Z" fill="#1C1C1C"/>
<path d="M11.7049 23.4823C11.6962 23.5344 11.7198 23.5864 11.7643 23.6155C11.8093 23.6438 11.8671 23.6415 11.9102 23.6117L12.5876 23.1395C12.8725 22.9402 13.264 23.0041 13.4708 23.2838L13.9624 23.9465C13.9944 23.9896 14.0483 24.0089 14.0992 23.9963C14.1513 23.984 14.1896 23.9412 14.1981 23.8896L14.7857 20.2911C13.8612 20.2539 13.0239 19.8835 12.3879 19.2953L11.7049 23.4823Z" fill="#1C1C1C"/>
<path d="M15.0845 20.2917L15.6721 23.8899C15.6806 23.9412 15.7197 23.9836 15.771 23.9962C15.8227 24.0081 15.8767 23.9891 15.9078 23.9464L16.5504 23.0803C16.6731 22.9141 16.9062 22.8757 17.0758 22.9936L17.9604 23.6117C18.0036 23.641 18.0612 23.6429 18.1058 23.6146C18.1508 23.5863 18.1742 23.5343 18.1656 23.4818L17.4821 19.2958C16.8464 19.8849 16.0081 20.2552 15.0845 20.2917Z" fill="#1C1C1C"/>
<path d="M17.2578 18.6659C17.771 18.1051 18.0871 17.3614 18.0871 16.5441C18.0871 14.8068 16.6726 13.3922 14.9355 13.3922C13.1978 13.3922 11.7842 14.8074 11.7842 16.5441C11.7842 17.3581 12.0964 18.0981 12.6054 18.6578C12.6668 18.7262 12.7308 18.7909 12.7985 18.8541C13.3321 19.348 14.0346 19.6584 14.8103 19.6889C14.8527 19.6908 14.8936 19.696 14.9356 19.696C14.9776 19.696 15.0193 19.6909 15.0609 19.6889C15.8359 19.6584 16.5391 19.348 17.0727 18.8541C17.1365 18.7938 17.199 18.7314 17.2578 18.6659Z" fill="#1C1C1C"/>
<path d="M6.27579 5.55652C6.97152 4.94646 7.3553 4.11069 7.3553 3.20354C7.3553 1.75017 6.31357 0.832028 5.55844 0.357913C4.98616 -0.00187515 4.27218 -0.0654305 3.64539 0.188504C2.50491 0.64998 1.70117 1.76762 1.70117 3.07377V20.3475C1.70117 20.6911 1.97916 20.9696 2.32366 20.9696H11.4687L11.8452 18.6622C11.4287 18.059 11.1797 17.3309 11.1797 16.5441C11.1797 14.4736 12.8638 12.7887 14.935 12.7887C17.0056 12.7887 18.6901 14.4744 18.6901 16.5441C18.6901 17.3309 18.4421 18.0598 18.0238 18.663L18.4008 20.9696H19.6733C20.0177 20.9684 20.298 20.6897 20.298 20.346V6.37405H5.34336C5.34336 6.37405 6.04283 5.76105 6.27579 5.55652ZM18.1634 12.6172H4.34601C4.17423 12.6172 4.03527 12.4774 4.03527 12.3056C4.03527 12.1335 4.17423 11.9944 4.34601 11.9944H18.1634C18.3349 11.9944 18.4743 12.1335 18.4743 12.3056C18.4743 12.4774 18.3349 12.6172 18.1634 12.6172ZM4.0357 10.4647C4.0357 10.2927 4.1748 10.1533 4.3468 10.1533H14.0975C14.27 10.1533 14.4099 10.2928 14.4099 10.4647C14.4099 10.6366 14.2701 10.776 14.0975 10.776H4.34565C4.17423 10.776 4.0357 10.6365 4.0357 10.4647ZM18.1634 8.31145C18.3349 8.31145 18.4743 8.45127 18.4743 8.62283C18.4743 8.79497 18.3349 8.93408 18.1634 8.93408H4.34601C4.17423 8.93408 4.03527 8.79497 4.03527 8.62283C4.03527 8.4512 4.17423 8.31145 4.34601 8.31145H18.1634Z" fill="#1C1C1C"/>
</g>
<defs>
<clipPath id="clip0_103_3892">
<rect width="24" height="24" fill="white"/>
</clipPath>
</defs>
</svg>
