<svg width="24" height="24" viewBox="0 0 24 24" fill="none" xmlns="http://www.w3.org/2000/svg">
<path d="M7.20529 15.155C8.52431 15.1531 9.59812 14.0776 9.59812 12.7578V12.0437C9.59812 11.9809 9.59555 11.9176 9.5904 11.854H9.2892C8.71242 11.854 8.49304 11.3178 8.39201 10.9769C7.82383 11.2437 6.49389 11.8187 4.81937 11.8525C4.81416 11.9166 4.81152 11.9804 4.81152 12.0437V12.7578C4.81152 14.0776 5.88541 15.1531 7.20529 15.155Z" fill="#1C1C1C"/>
<path d="M22.7442 1.42932H1.25578C0.563344 1.42932 0 1.99267 0 2.6851V21.3149C0 22.0073 0.563344 22.5707 1.25578 22.5707H22.7442C23.4367 22.5707 24 22.0073 24 21.3149V2.6851C24 1.99267 23.4367 1.42932 22.7442 1.42932ZM6.72722 3.51706H17.2728V6.06441H6.72722V3.51706ZM21.221 9.99928V11.7689H14.9698V9.99928H21.221ZM10.9323 18.0289L10.9279 19.7649H3.48159L3.4772 18.0148V16.6562C3.4772 15.9344 4.27387 15.6541 4.85548 15.4494C4.97949 15.4057 5.11888 15.3567 5.23611 15.3075C5.22223 15.2922 5.20823 15.2769 5.19416 15.2614C4.6673 14.6836 4.07043 14.0289 4.06616 12.8699L3.99602 11.9731C3.8366 9.92236 4.91212 9.59102 6.40072 9.13241C6.62525 9.06322 6.85739 8.9917 7.10609 8.90932C7.43027 8.80189 7.74893 8.74739 8.05314 8.74739C8.70094 8.74739 9.26773 8.98988 9.69219 9.44856C10.2381 10.0386 10.4943 10.9351 10.4136 11.973L10.3435 12.8698C10.3392 14.0288 9.74229 14.6835 9.21549 15.2614C9.20136 15.2768 9.18742 15.2922 9.17355 15.3074C9.29078 15.3567 9.43017 15.4057 9.55418 15.4493C10.1359 15.654 10.9325 15.9343 10.9325 16.6561L10.9323 18.0289ZM14.9698 13.9115H21.221V15.6811H14.9698V13.9115ZM21.3534 19.5933H15.1022V17.8237H21.3534V19.5933Z" fill="#1C1C1C"/>
<path d="M7.20462 18.136L9.09577 16.1301H5.31348L7.20462 18.136Z" fill="#1C1C1C"/>
</svg>
