<svg width="24" height="24" viewBox="0 0 24 24" fill="none" xmlns="http://www.w3.org/2000/svg">
<g clip-path="url(#clip0_103_3868)">
<path d="M11.9145 5.00002C13.2955 5.00002 14.4145 3.88102 14.4145 2.50003C14.4145 1.119 13.2955 0 11.9145 0C10.5336 0 9.41455 1.119 9.41455 2.49998C9.4145 3.88102 10.5345 5.00002 11.9145 5.00002Z" fill="#1C1C1C"/>
<path d="M19.0005 5.99997C20.3815 5.99997 21.5005 4.88097 21.5005 3.49998C21.5005 2.11998 20.3815 1 19.0005 1C17.6195 1 16.5005 2.119 16.5005 3.49998C16.5004 4.88097 17.6205 5.99997 19.0005 5.99997Z" fill="#1C1C1C"/>
<path d="M5.00047 5.99997C6.38146 5.99997 7.50046 4.88097 7.50046 3.49998C7.50046 2.11998 6.38146 1 5.00047 1C3.62047 1 2.50049 2.11998 2.50049 3.49998C2.50049 4.88097 3.62047 5.99997 5.00047 5.99997Z" fill="#1C1C1C"/>
<path d="M23.3554 14.315L22.7144 9.19C22.5584 7.942 21.4924 7 20.2344 7H17.7654C17.4873 7 17.2074 7.04898 16.9323 7.147C16.6863 7.234 16.5493 7.495 16.6164 7.747C16.6653 7.93202 16.7114 8.11998 16.7343 8.31498L17.3973 14.123C17.4843 14.892 17.2443 15.658 16.7383 16.225C16.6283 16.349 16.4933 16.465 16.3163 16.592C16.1743 16.693 16.0953 16.861 16.1083 17.034L16.5013 22.535C16.5203 22.797 16.7373 23 17.0003 23H21.0003C21.2623 23 21.4803 22.797 21.4993 22.536L21.9663 15.997C22.3603 15.9709 22.7293 15.7909 22.9923 15.493C23.2764 15.17 23.4094 14.742 23.3554 14.315Z" fill="#1C1C1C"/>
<path d="M7.6493 16.69C7.43429 16.555 7.24632 16.399 7.09032 16.226C6.5843 15.659 6.3443 14.893 6.4313 14.124L7.0943 8.31596C7.1183 8.10596 7.16532 7.90398 7.2203 7.70696C7.2563 7.57796 7.2383 7.43996 7.17132 7.32296C7.10532 7.20695 6.99432 7.12295 6.86532 7.08896C6.63432 7.02896 6.4343 7.00098 6.23433 7.00098H3.76529C2.5073 7.00098 1.44029 7.94199 1.28527 9.19098L0.644302 14.315C0.591286 14.742 0.723286 15.171 1.00829 15.494C1.2713 15.792 1.6403 15.972 2.03429 15.998L2.5013 22.537C2.52029 22.799 2.73732 23.0011 3.00029 23.0011H7.00027C7.26226 23.0011 7.48027 22.798 7.49926 22.537L7.88424 17.15C7.8983 16.964 7.80732 16.787 7.6493 16.69Z" fill="#1C1C1C"/>
<path d="M16.4031 14.237L15.7401 8.42803C15.5821 7.044 14.4861 6 13.1911 6H10.6381C9.34307 6 8.24611 7.044 8.08907 8.42798L7.42607 14.236C7.37006 14.722 7.52006 15.204 7.83707 15.56C8.11007 15.866 8.47209 16.043 8.86406 16.065L9.41606 23.537C9.43504 23.797 9.65306 24 9.91504 24H13.915C14.177 24 14.394 23.798 14.414 23.537L14.966 16.065C15.359 16.043 15.72 15.8649 15.993 15.56C16.3091 15.206 16.4581 14.722 16.4031 14.237Z" fill="#1C1C1C"/>
</g>
<defs>
<clipPath id="clip0_103_3868">
<rect width="24" height="24" fill="white"/>
</clipPath>
</defs>
</svg>
