<svg width="24" height="24" viewBox="0 0 24 24" fill="none" xmlns="http://www.w3.org/2000/svg">
<g clip-path="url(#clip0_103_3870)">
<path d="M9.00002 10H7V12H9.00002V10Z" fill="#1C1C1C"/>
<path d="M21 0.999984H20C20 0.447984 19.553 0 19 0C18.447 0 18 0.447984 18 0.999984H6C6 0.447984 5.553 0 5.00002 0C4.44698 0 3.99998 0.447984 3.99998 0.999984H3C1.34602 0.999984 0 2.346 0 3.99998V4.99997H24V3.99998C24 2.346 22.654 0.999984 21 0.999984Z" fill="#1C1C1C"/>
<path d="M9.00002 17H7V19H9.00002V17Z" fill="#1C1C1C"/>
<path d="M17 10H15V12H17V10Z" fill="#1C1C1C"/>
<path d="M0 21C0 22.654 1.34602 24 3 24H15.69C14.071 22.924 13 21.086 13 19C13 16.914 14.071 15.076 15.69 14H14C13.447 14 13 13.552 13 13V9.00002C13 8.44802 13.447 8.00003 14 8.00003H18C18.553 8.00003 19 8.44802 19 9.00002V13C21.086 13 22.924 14.071 24 15.69V7H0V21ZM5.00002 9.00002C5.00002 8.44802 5.44702 8.00003 6 8.00003H9.99998C10.553 8.00003 11 8.44802 11 9.00002V13C11 13.552 10.553 14 9.99998 14H6C5.44702 14 5.00002 13.552 5.00002 13V9.00002ZM5.00002 16C5.00002 15.448 5.44702 15 6 15H9.99998C10.553 15 11 15.448 11 16V20C11 20.552 10.553 21 9.99998 21H6C5.44702 21 5.00002 20.552 5.00002 20V16Z" fill="#1C1C1C"/>
<path d="M19 15C16.794 15 15 16.794 15 19C15 21.206 16.794 23 19 23C21.206 23 23 21.206 23 19C23 16.794 21.206 15 19 15ZM20 20H19C18.447 20 18 19.552 18 19V17C18 16.448 18.447 16 19 16C19.553 16 20 16.448 20 17V18C20.553 18 21 18.448 21 19C21 19.552 20.553 20 20 20Z" fill="#1C1C1C"/>
</g>
<defs>
<clipPath id="clip0_103_3870">
<rect width="24" height="24" fill="white"/>
</clipPath>
</defs>
</svg>
