<svg width="20" height="20" viewBox="0 0 20 20" fill="none" xmlns="http://www.w3.org/2000/svg">
<path d="M7.5 3.75H6.66667C4.70248 3.75 3.72039 3.75 3.11019 4.36019C2.5 4.97039 2.5 5.95248 2.5 7.91667V12.0833C2.5 14.0475 2.5 15.0296 3.11019 15.6398C3.72039 16.25 4.70248 16.25 6.66667 16.25H7.5" stroke="#393939" stroke-width="1.5"/>
<path d="M7.5 5.39699C7.5 3.48548 7.5 2.52973 8.08938 2.00724C8.67875 1.48474 9.57961 1.64187 11.3813 1.95612L13.322 2.2946C15.3174 2.64264 16.3151 2.81665 16.9075 3.54854C17.5 4.28042 17.5 5.33892 17.5 7.45591V12.5441C17.5 14.6611 17.5 15.7196 16.9075 16.4514C16.3151 17.1833 15.3174 17.3573 13.322 17.7054L11.3813 18.0439C9.57961 18.3581 8.67875 18.5152 8.08938 17.9927C7.5 17.4703 7.5 16.5145 7.5 14.603V5.39699Z" stroke="#393939" stroke-width="1.5"/>
<path d="M10 9.16666V10.8333" stroke="#393939" stroke-width="1.5" stroke-linecap="round"/>
</svg>
