<svg width="32" height="32" viewBox="0 0 32 32" fill="none" xmlns="http://www.w3.org/2000/svg">
<path fill-rule="evenodd" clip-rule="evenodd" d="M8.40196 20.7695C6.37109 19.0246 4.92053 17.0302 4.24003 16C4.92053 14.9699 6.37109 12.9755 8.40196 11.2306C10.4987 9.42917 13.0877 8.00004 16 8.00004C18.9124 8.00004 21.5015 9.42917 23.5981 11.2306C25.6291 12.9755 27.0796 14.9699 27.7601 16C27.0796 17.0302 25.6291 19.0246 23.5981 20.7695C21.5015 22.571 18.9124 24 16 24C13.0877 24 10.4987 22.571 8.40196 20.7695ZM16 5.33337C12.1967 5.33337 9.00956 7.19287 6.66416 9.20797C4.31024 11.2304 2.67676 13.5168 1.95183 14.6264C1.40408 15.4647 1.40408 16.5354 1.95183 17.3736C2.67676 18.4832 4.31024 20.7696 6.66416 22.7922C9.00956 24.8072 12.1967 26.6667 16 26.6667C19.8033 26.6667 22.9905 24.8072 25.336 22.7922C27.6899 20.7696 29.3233 18.4832 30.0483 17.3736C30.596 16.5354 30.596 15.4647 30.0483 14.6264C29.3233 13.5168 27.6899 11.2304 25.336 9.20797C22.9905 7.19287 19.8033 5.33337 16 5.33337ZM13.3333 16C13.3333 14.5272 14.5273 13.3334 16 13.3334C17.4728 13.3334 18.6667 14.5272 18.6667 16C18.6667 17.4728 17.4728 18.6667 16 18.6667C14.5273 18.6667 13.3333 17.4728 13.3333 16ZM16 10.6667C13.0545 10.6667 10.6667 13.0545 10.6667 16C10.6667 18.9455 13.0545 21.3334 16 21.3334C18.9456 21.3334 21.3333 18.9455 21.3333 16C21.3333 13.0545 18.9456 10.6667 16 10.6667Z" fill="#1C1C1C"/>
</svg>
