<svg width="32" height="32" viewBox="0 0 32 32" fill="none" xmlns="http://www.w3.org/2000/svg">
<path fill-rule="evenodd" clip-rule="evenodd" d="M14.6668 5.33329C13.9304 5.33329 13.3335 5.93025 13.3335 6.66663V10.6666H20.0879C21.2699 10.6666 22.2883 10.6665 23.1039 10.7762C23.9779 10.8937 24.8158 11.1587 25.4952 11.8382C26.1748 12.5178 26.4398 13.3556 26.5574 14.2296C26.667 15.0452 26.667 16.0636 26.6668 17.2456V22.7544C26.667 23.9364 26.667 24.9548 26.5574 25.7704C26.4398 26.6444 26.1748 27.4822 25.4952 28.1617C24.8158 28.8413 23.9779 29.1062 23.1039 29.2238C22.2883 29.3334 21.2699 29.3334 20.0879 29.3333H11.9124C10.7304 29.3334 9.71199 29.3334 8.89646 29.2238C8.02243 29.1062 7.18463 28.8413 6.50509 28.1617C5.82553 27.4822 5.56054 26.6444 5.44303 25.7704C5.33338 24.9548 5.33343 23.9364 5.3335 22.7544V17.2456C5.33343 16.0636 5.33338 15.0452 5.44303 14.2296C5.56054 13.3556 5.82553 12.5178 6.50509 11.8382C7.18463 11.1587 8.02243 10.8937 8.89646 10.7761C9.40955 10.7072 10.0029 10.6816 10.6668 10.6722V6.66663C10.6668 4.45749 12.4577 2.66663 14.6668 2.66663H17.4168C19.5799 2.66663 21.3335 4.42017 21.3335 6.58329V6.66663C21.3335 7.403 20.7366 7.99996 20.0002 7.99996C19.2638 7.99996 18.6668 7.403 18.6668 6.66663V6.58329C18.6668 5.89293 18.1072 5.33329 17.4168 5.33329H14.6668ZM16.0002 17.3333C14.5274 17.3333 13.3335 18.5272 13.3335 20C13.3335 21.4728 14.5274 22.6666 16.0002 22.6666C17.473 22.6666 18.6668 21.4728 18.6668 20C18.6668 18.5272 17.473 17.3333 16.0002 17.3333Z" fill="#1C1C1C"/>
</svg>
