<svg width="58" height="64" viewBox="0 0 58 64" fill="none" xmlns="http://www.w3.org/2000/svg">
<g clip-path="url(#clip0_2_2)">
<path fill-rule="evenodd" clip-rule="evenodd" d="M29.6878 5.58821H28.6017C28.5148 5.58821 28.4424 5.56292 28.4472 5.5142C28.4521 5.46604 28.5486 5.28148 28.5486 5.28148C28.5727 5.23378 28.621 5.2075 28.7079 5.2075H29.5864C29.6685 5.2075 29.7071 5.23911 29.7409 5.28148C29.7409 5.28148 29.8471 5.47622 29.8423 5.5142C29.8423 5.55268 29.7747 5.58821 29.6878 5.58821ZM31.9566 4.39782C31.7925 4.1982 31.6284 4.05508 31.2325 4.05508H27.1584C26.7577 4.05508 26.5308 4.17437 26.4343 4.39782C26.4343 4.39782 25.9709 5.25177 25.9564 5.47721C25.9371 5.70118 26.275 5.8185 26.6757 5.8185H31.7152C32.1111 5.8185 32.42 5.65297 32.4345 5.47721C32.4538 5.30046 31.9566 4.39782 31.9566 4.39782Z" fill="#686D6E"/>
<path fill-rule="evenodd" clip-rule="evenodd" d="M31.1263 1.14509H28.8237V0.886566H31.1263V1.14509ZM31.1263 1.69722H28.8237V1.44014H31.1263V1.69722ZM31.1263 2.24977H28.8237V1.99274H31.1263V2.24977ZM31.1263 2.8019H27.2791V2.54482H31.1263V2.8019ZM27.2549 0.886566H28.4858V2.2386H27.2549V0.886566ZM31.2325 2.28882e-05H27.1584C26.7577 2.28882e-05 26.4343 0.325221 26.4343 0.727863V3.02489C26.4343 3.42654 26.7577 3.7532 27.1584 3.7532H31.2325C31.6284 3.7532 31.9566 3.42654 31.9566 3.02489V0.727863C31.9566 0.325221 31.6284 2.28882e-05 31.2325 2.28882e-05Z" fill="#686D6E"/>
<path fill-rule="evenodd" clip-rule="evenodd" d="M29.6878 36.0278H28.6017C28.5148 36.0278 28.4424 36.0025 28.4472 35.9538C28.4521 35.9051 28.5486 35.7211 28.5486 35.7211C28.5727 35.6734 28.621 35.6471 28.7079 35.6471H29.5864C29.6685 35.6471 29.7071 35.6787 29.7409 35.7211C29.7409 35.7211 29.8471 35.9159 29.8423 35.9538C29.8423 35.9923 29.7747 36.0278 29.6878 36.0278ZM31.9566 34.8375C31.7925 34.6378 31.6284 34.4947 31.2325 34.4947H27.1584C26.7577 34.4947 26.5308 34.614 26.4343 34.8375C26.4343 34.8375 25.9709 35.6914 25.9564 35.9163C25.9371 36.1408 26.275 36.2581 26.6757 36.2581H31.7152C32.1111 36.2581 32.42 36.0926 32.4345 35.9163C32.4538 35.7401 31.9566 34.8375 31.9566 34.8375Z" fill="#686D6E"/>
<path fill-rule="evenodd" clip-rule="evenodd" d="M31.1263 31.5847H28.8237V31.3262H31.1263V31.5847ZM31.1263 32.1363H28.8237V31.8798H31.1263V32.1363ZM31.1263 32.6894H28.8237V32.4319H31.1263V32.6894ZM31.1263 33.2415H27.2791V32.9845H31.1263V33.2415ZM27.2549 31.3262H28.4858V32.6782H27.2549V31.3262ZM31.2325 30.4396H27.1584C26.7577 30.4396 26.4343 30.7649 26.4343 31.1674V33.4645C26.4343 33.8661 26.7577 34.1924 27.1584 34.1924H31.2325C31.6284 34.1924 31.9566 33.8661 31.9566 33.4645V31.1674C31.9566 30.7649 31.6284 30.4396 31.2325 30.4396Z" fill="#686D6E"/>
<path fill-rule="evenodd" clip-rule="evenodd" d="M29.6878 63.7697H28.6017C28.5148 63.7697 28.4424 63.7444 28.4472 63.6952C28.4521 63.647 28.5486 63.463 28.5486 63.463C28.5727 63.4148 28.621 63.389 28.7079 63.389H29.5864C29.6685 63.389 29.7071 63.4202 29.7409 63.463C29.7409 63.463 29.8471 63.6573 29.8423 63.6952C29.8423 63.7337 29.7747 63.7697 29.6878 63.7697ZM31.9566 62.5793C31.7925 62.3793 31.6284 62.2361 31.2325 62.2361H27.1584C26.7577 62.2361 26.5308 62.3559 26.4343 62.5793C26.4343 62.5793 25.9709 63.4333 25.9564 63.6583C25.9371 63.8822 26.275 64 26.6757 64H31.7152C32.1111 64 32.42 63.834 32.4345 63.6583C32.4538 63.4815 31.9566 62.5793 31.9566 62.5793Z" fill="#686D6E"/>
<path fill-rule="evenodd" clip-rule="evenodd" d="M31.1263 59.3261H28.8237V59.0681H31.1263V59.3261ZM31.1263 59.8778H28.8237V59.6217H31.1263V59.8778ZM31.1263 60.4308H28.8237V60.1738H31.1263V60.4308ZM31.1263 60.9834H27.2791V60.7259H31.1263V60.9834ZM27.2549 59.0681H28.4858V60.4201H27.2549V59.0681ZM31.2325 58.1815H27.1584C26.7577 58.1815 26.4343 58.5063 26.4343 58.9089V61.2059C26.4343 61.6076 26.7577 61.9343 27.1584 61.9343H31.2325C31.6284 61.9343 31.9566 61.6076 31.9566 61.2059V58.9089C31.9566 58.5063 31.6284 58.1815 31.2325 58.1815Z" fill="#686D6E"/>
<path fill-rule="evenodd" clip-rule="evenodd" d="M3.73669 20.5441H2.65058C2.56366 20.5441 2.49129 20.5188 2.49612 20.4701C2.50093 20.4219 2.59746 20.2379 2.59746 20.2379C2.62161 20.1897 2.66987 20.1634 2.75675 20.1634H3.63535C3.72222 20.1634 3.75601 20.1946 3.78977 20.2379C3.78977 20.2379 3.89598 20.4321 3.89598 20.4701C3.88634 20.5086 3.82357 20.5441 3.73669 20.5441ZM6.00065 19.3538C5.84134 19.1541 5.67722 19.0105 5.28138 19.0105H1.20722C0.806576 19.0105 0.579674 19.1303 0.483167 19.3538C0.483167 19.3538 0.0197376 20.2077 0.000450634 20.4326C-0.0140598 20.6571 0.32386 20.7744 0.724507 20.7744H5.75929C6.15993 20.7744 6.46889 20.6089 6.4834 20.4326C6.49785 20.2559 6.00065 19.3538 6.00065 19.3538Z" fill="#686D6E"/>
<path fill-rule="evenodd" clip-rule="evenodd" d="M5.17523 16.101H2.87262V15.8425H5.17523V16.101ZM5.17523 16.6526H2.87262V16.3961H5.17523V16.6526ZM5.17523 17.2057H2.87262V16.9482H5.17523V17.2057ZM5.17523 17.7578H1.32309V17.5007H5.17523V17.7578ZM1.30381 15.8425H2.52992V17.1945H1.30381V15.8425ZM5.28139 14.9559H1.20723C0.806579 14.9559 0.48317 15.2812 0.48317 15.6838V17.9808C0.48317 18.3825 0.806579 18.7087 1.20723 18.7087H5.28139C5.67722 18.7087 6.00065 18.3825 6.00065 17.9808V15.6838C6.00065 15.2812 5.67722 14.9559 5.28139 14.9559Z" fill="#686D6E"/>
<path fill-rule="evenodd" clip-rule="evenodd" d="M55.2093 20.5441H54.1232C54.0363 20.5441 53.9639 20.5188 53.9687 20.4701C53.9736 20.4219 54.0749 20.2379 54.0749 20.2379C54.0943 20.1897 54.1425 20.1634 54.2294 20.1634H55.1079C55.1948 20.1634 55.2286 20.1946 55.2624 20.2379C55.2624 20.2379 55.3686 20.4321 55.3686 20.4701C55.3638 20.5086 55.2962 20.5441 55.2093 20.5441ZM57.4733 19.3538C57.314 19.1541 57.1499 19.0105 56.754 19.0105H52.6799C52.2792 19.0105 52.0523 19.1303 51.9558 19.3538C51.9558 19.3538 51.4924 20.2077 51.4779 20.4326C51.4586 20.6571 51.7965 20.7744 52.1972 20.7744H57.2367C57.6326 20.7744 57.9415 20.6089 57.956 20.4326C57.9705 20.2559 57.4733 19.3538 57.4733 19.3538Z" fill="#686D6E"/>
<path fill-rule="evenodd" clip-rule="evenodd" d="M56.6478 16.101H54.3453V15.8425H56.6478V16.101ZM56.6478 16.6526H54.3453V16.3961H56.6478V16.6526ZM56.6478 17.2057H54.3453V16.9482H56.6478V17.2057ZM56.6478 17.7578H52.8005V17.5007H56.6478V17.7578ZM52.7764 15.8425H54.0073V17.1945H52.7764V15.8425ZM56.754 14.9559H52.6799C52.2792 14.9559 51.9557 15.2812 51.9557 15.6838V17.9808C51.9557 18.3825 52.2792 18.7087 52.6799 18.7087H56.754C57.1499 18.7087 57.4733 18.3825 57.4733 17.9808V15.6838C57.4733 15.2812 57.1499 14.9559 56.754 14.9559Z" fill="#686D6E"/>
<path fill-rule="evenodd" clip-rule="evenodd" d="M3.73669 47.9925H2.65058C2.56366 47.9925 2.49129 47.9671 2.49612 47.9184C2.50093 47.8702 2.59746 47.6857 2.59746 47.6857C2.62161 47.638 2.66987 47.6118 2.75675 47.6118H3.63535C3.72222 47.6118 3.75601 47.6434 3.78977 47.6857C3.78977 47.6857 3.89598 47.8805 3.89598 47.9184C3.88634 47.9569 3.82357 47.9925 3.73669 47.9925ZM6.00065 46.8021C5.84134 46.6025 5.67722 46.4593 5.28138 46.4593H1.20722C0.806576 46.4593 0.579674 46.5786 0.483167 46.8021C0.483167 46.8021 0.0197376 47.656 0.000450634 47.8809C-0.0140598 48.1054 0.32386 48.2228 0.724507 48.2228H5.75929C6.15993 48.2228 6.46889 48.0572 6.4834 47.8809C6.49785 47.7047 6.00065 46.8021 6.00065 46.8021Z" fill="#686D6E"/>
<path fill-rule="evenodd" clip-rule="evenodd" d="M5.17523 43.5494H2.87262V43.2908H5.17523V43.5494ZM5.17523 44.101H2.87262V43.8444H5.17523V44.101ZM5.17523 44.654H2.87262V44.3965H5.17523V44.654ZM5.17523 45.2066H1.32309V44.9491H5.17523V45.2066ZM1.30381 43.2908H2.52992V44.6433H1.30381V43.2908ZM5.28139 42.4042H1.20723C0.806579 42.4042 0.48317 42.7295 0.48317 43.1321V45.4292C0.48317 45.8308 0.806579 46.1575 1.20723 46.1575H5.28139C5.67722 46.1575 6.00065 45.8308 6.00065 45.4292V43.1321C6.00065 42.7295 5.67722 42.4042 5.28139 42.4042Z" fill="#686D6E"/>
<path fill-rule="evenodd" clip-rule="evenodd" d="M55.2576 47.9925H54.1715C54.0846 47.9925 54.0122 47.9671 54.017 47.9184C54.017 47.8702 54.1184 47.6857 54.1184 47.6857C54.1377 47.638 54.1908 47.6118 54.2728 47.6118H55.1514C55.2383 47.6118 55.2721 47.6434 55.3107 47.6857C55.3107 47.6857 55.4169 47.8805 55.4121 47.9184C55.4073 47.9569 55.3445 47.9925 55.2576 47.9925ZM57.5215 46.8021C57.3622 46.6025 57.1981 46.4593 56.7975 46.4593H52.7233C52.3227 46.4593 52.1006 46.5786 52.0041 46.8021C52.0041 46.8021 51.5358 47.656 51.5213 47.8809C51.5068 48.1054 51.8448 48.2228 52.2454 48.2228H57.2802C57.6808 48.2228 57.985 48.0572 57.9994 47.8809C58.0188 47.7047 57.5215 46.8021 57.5215 46.8021Z" fill="#686D6E"/>
<path fill-rule="evenodd" clip-rule="evenodd" d="M56.6913 43.5494H54.3887V43.2908H56.6913V43.5494ZM56.6913 44.101H54.3887V43.8444H56.6913V44.101ZM56.6913 44.654H54.3887V44.3965H56.6913V44.654ZM56.6913 45.2066H52.844V44.9491H56.6913V45.2066ZM52.8198 43.2908H54.0508V44.6433H52.8198V43.2908ZM56.7975 42.4042H52.7233C52.3227 42.4042 51.9993 42.7295 51.9993 43.1321V45.4292C51.9993 45.8308 52.3227 46.1575 52.7233 46.1575H56.7975C57.1981 46.1575 57.5215 45.8308 57.5215 45.4292V43.1321C57.5215 42.7295 57.1981 42.4042 56.7975 42.4042Z" fill="#686D6E"/>
<path d="M2.83882 41.7144H3.40337V22.3404H2.83882V41.7144Z" fill="url(#paint0_linear_2_2)"/>
<path d="M54.6397 41.7144H55.2042V21.4284H54.6397V41.7144Z" fill="url(#paint1_linear_2_2)"/>
<path d="M28.9975 28.6937H29.5619V8.40762H28.9975V28.6937Z" fill="url(#paint2_linear_2_2)"/>
<path d="M49.6291 13.4968L49.3491 13.9914L34.2061 5.25715L34.4909 4.76295L49.6291 13.4968Z" fill="url(#paint3_linear_2_2)"/>
<path d="M24.0882 59.979L23.8083 60.4732L6.7006 50.6069L6.98057 50.1127L24.0882 59.979Z" fill="url(#paint4_linear_2_2)"/>
<path d="M49.8511 44.5036L49.5711 44.9978L34.5199 36.3165L34.7998 35.8224L49.8511 44.5036Z" fill="url(#paint5_linear_2_2)"/>
<path d="M50.7924 50.4112L51.0724 50.9044L34.2399 60.665L33.9599 60.1713L50.7924 50.4112Z" fill="url(#paint6_linear_2_2)"/>
<path d="M24.2717 35.8068L24.5565 36.301L7.72397 46.0611L7.444 45.5679L24.2717 35.8068Z" fill="url(#paint7_linear_2_2)"/>
<path d="M23.6152 4.78438L23.8951 5.27759L8.25494 14.3488L7.97497 13.8551L23.6152 4.78438Z" fill="url(#paint8_linear_2_2)"/>
<path fill-rule="evenodd" clip-rule="evenodd" d="M26.246 53.3319C26.275 53.7774 25.7826 54.4156 24.9861 54.9103C23.1663 56.0408 20.7381 56.1265 18.9762 55.0739C17.3495 54.1031 17.0936 52.6742 19.1162 51.419C19.8982 50.9346 20.8202 50.678 21.5057 50.6571L21.8822 51.6065C21.3754 51.6931 20.883 51.7997 20.3327 52.1434C19.4251 52.7058 19.2852 53.5217 20.4003 54.1883C21.4043 54.7871 22.8428 54.7642 23.8952 54.108C24.3151 53.8475 24.6482 53.4838 24.764 53.07L26.246 53.3319Z" fill="#686D6E"/>
<path fill-rule="evenodd" clip-rule="evenodd" d="M30.2671 48.6707C32 49.7042 31.5608 50.8328 30.3009 51.6137C28.7899 52.5515 26.9074 52.7048 25.2468 51.7145L21.9739 49.7636L23.3207 48.9302L26.3136 50.7174C27.197 51.2437 28.1479 51.4725 29.0844 50.8893C29.9002 50.3839 29.572 49.8903 28.6645 49.3494L25.5943 47.5188L26.9411 46.6857L30.2671 48.6707Z" fill="#686D6E"/>
<path fill-rule="evenodd" clip-rule="evenodd" d="M33.0862 46.9813L34.1434 47.6137C34.264 47.5713 34.3944 47.5178 34.6502 47.3615C35.1667 47.0387 35.2102 46.7471 34.8288 46.5197C34.4716 46.3074 34.042 46.3877 33.6075 46.6584L33.0862 46.9813ZM30.9236 45.6916L31.9518 46.305L32.3959 46.0289C32.7434 45.8157 32.8786 45.5616 32.4683 45.3152C32.1256 45.1122 31.638 45.2086 31.3098 45.4121C31.1456 45.5163 31.0588 45.5883 30.9236 45.6916ZM28.3845 45.8103C28.6934 45.5971 29.4754 45.0732 30.1126 44.6769C31.5173 43.8074 32.7096 43.8249 33.4965 44.2933C34.0854 44.6463 34.2495 45.0284 34.0854 45.4637L34.1047 45.473C34.684 45.2991 35.5094 45.2904 36.2384 45.7251C37.4259 46.435 37.03 47.362 35.7508 48.1541C35.1908 48.5027 34.3944 48.9774 34.0179 49.1716L28.3845 45.8103Z" fill="#686D6E"/>
<path fill-rule="evenodd" clip-rule="evenodd" d="M33.5448 42.5873L37.03 40.4262L38.2465 41.1506L36.1032 42.4787L37.0976 43.0727L38.9899 41.9004L40.2015 42.6248L38.3141 43.7967L39.3422 44.4106L41.5676 43.0304L42.7792 43.7548L39.2119 45.9681L33.5448 42.5873Z" fill="#686D6E"/>
<path fill-rule="evenodd" clip-rule="evenodd" d="M17.3736 18.898V13.7602L12.8795 16.3055L17.3736 18.898Z" fill="#686D6E"/>
<path fill-rule="evenodd" clip-rule="evenodd" d="M12.4837 16.8708V38.1082L17.3736 35.3384V19.6922L12.4837 16.8708Z" fill="#0077B9"/>
<path fill-rule="evenodd" clip-rule="evenodd" d="M39.5788 34.4523L44.0247 37.0137V21.7598L39.5788 24.2764V34.4523Z" fill="#0077B9"/>
<path fill-rule="evenodd" clip-rule="evenodd" d="M34.6261 11.1491V15.5275L39.5788 18.3985V23.5242L44.0247 20.9604L45.97 22.0831L49.8077 19.9132L34.6261 11.1491Z" fill="#686D6E"/>
<path fill-rule="evenodd" clip-rule="evenodd" d="M46.6314 22.4624L49.8607 24.3227V20.6356L46.6314 22.4624Z" fill="#0077B9"/>
</g>
<defs>
<linearGradient id="paint0_linear_2_2" x1="2.83882" y1="22.3404" x2="2.83882" y2="41.7144" gradientUnits="userSpaceOnUse">
<stop stop-color="white"/>
<stop offset="0.14" stop-color="#0077B9"/>
<stop offset="0.85" stop-color="#0077B9"/>
<stop offset="1" stop-color="white"/>
</linearGradient>
<linearGradient id="paint1_linear_2_2" x1="54.6397" y1="21.4284" x2="54.6397" y2="41.7144" gradientUnits="userSpaceOnUse">
<stop stop-color="white"/>
<stop offset="0.14" stop-color="#0077B9"/>
<stop offset="0.85" stop-color="#0077B9"/>
<stop offset="1" stop-color="white"/>
</linearGradient>
<linearGradient id="paint2_linear_2_2" x1="28.9975" y1="8.40762" x2="28.9975" y2="28.6937" gradientUnits="userSpaceOnUse">
<stop stop-color="white"/>
<stop offset="0.14" stop-color="#0077B9"/>
<stop offset="0.85" stop-color="#0077B9"/>
<stop offset="1" stop-color="white"/>
</linearGradient>
<linearGradient id="paint3_linear_2_2" x1="34.2061" y1="4.76296" x2="34.2061" y2="13.9915" gradientUnits="userSpaceOnUse">
<stop stop-color="white"/>
<stop offset="0.14" stop-color="#0077B9"/>
<stop offset="0.85" stop-color="#0077B9"/>
<stop offset="1" stop-color="white"/>
</linearGradient>
<linearGradient id="paint4_linear_2_2" x1="6.7006" y1="50.1127" x2="6.7006" y2="60.4732" gradientUnits="userSpaceOnUse">
<stop stop-color="white"/>
<stop offset="0.14" stop-color="#0077B9"/>
<stop offset="0.85" stop-color="#0077B9"/>
<stop offset="1" stop-color="white"/>
</linearGradient>
<linearGradient id="paint5_linear_2_2" x1="34.5199" y1="35.8224" x2="34.5199" y2="44.9978" gradientUnits="userSpaceOnUse">
<stop stop-color="white"/>
<stop offset="0.14" stop-color="#0077B9"/>
<stop offset="0.85" stop-color="#0077B9"/>
<stop offset="1" stop-color="white"/>
</linearGradient>
<linearGradient id="paint6_linear_2_2" x1="33.9599" y1="50.4112" x2="33.9599" y2="60.665" gradientUnits="userSpaceOnUse">
<stop stop-color="white"/>
<stop offset="0.14" stop-color="#0077B9"/>
<stop offset="0.85" stop-color="#0077B9"/>
<stop offset="1" stop-color="white"/>
</linearGradient>
<linearGradient id="paint7_linear_2_2" x1="7.444" y1="35.8068" x2="7.444" y2="46.0611" gradientUnits="userSpaceOnUse">
<stop stop-color="white"/>
<stop offset="0.14" stop-color="#0077B9"/>
<stop offset="0.85" stop-color="#0077B9"/>
<stop offset="1" stop-color="white"/>
</linearGradient>
<linearGradient id="paint8_linear_2_2" x1="7.97497" y1="4.78438" x2="7.97497" y2="14.3488" gradientUnits="userSpaceOnUse">
<stop stop-color="white"/>
<stop offset="0.14" stop-color="#0077B9"/>
<stop offset="0.85" stop-color="#0077B9"/>
<stop offset="1" stop-color="white"/>
</linearGradient>
<clipPath id="clip0_2_2">
<rect width="58" height="64" fill="white"/>
</clipPath>
</defs>
</svg>
