<svg width="32" height="32" viewBox="0 0 32 32" fill="none" xmlns="http://www.w3.org/2000/svg">
<path d="M5.33333 24L12 16M26.6667 24L20 16M4 10.6666L13.6333 17.0888C14.4887 17.659 14.9163 17.9442 15.3785 18.0549C15.7871 18.1529 16.2129 18.1529 16.6215 18.0549C17.0837 17.9442 17.5113 17.659 18.3667 17.0888L28 10.6666M8.26667 25.3333H23.7333C25.2268 25.3333 25.9736 25.3333 26.544 25.0426C27.0457 24.787 27.4537 24.379 27.7093 23.8773C28 23.3069 28 22.5601 28 21.0666V10.9333C28 9.43983 28 8.69308 27.7093 8.12265C27.4537 7.62088 27.0457 7.21293 26.544 6.95728C25.9736 6.66663 25.2268 6.66663 23.7333 6.66663H8.26667C6.7732 6.66663 6.02645 6.66663 5.45603 6.95728C4.95425 7.21293 4.54631 7.62088 4.29065 8.12265C4 8.69308 4 9.43981 4 10.9333V21.0666C4 22.5601 4 23.3069 4.29065 23.8773C4.54631 24.379 4.95425 24.787 5.45603 25.0426C6.02645 25.3333 6.77319 25.3333 8.26667 25.3333Z" stroke="#1C1C1C" stroke-width="2" stroke-linecap="round" stroke-linejoin="round"/>
</svg>
