<svg width="42" height="42" viewBox="0 0 42 42" fill="none" xmlns="http://www.w3.org/2000/svg">
<path fill-rule="evenodd" clip-rule="evenodd" d="M0.5 21C0.5 9.67816 9.67816 0.5 21 0.5C32.3218 0.5 41.5 9.67816 41.5 21C41.5 32.3218 32.3218 41.5 21 41.5C9.67816 41.5 0.5 32.3218 0.5 21ZM21 1.5C10.2304 1.5 1.5 10.2304 1.5 21C1.5 31.7696 10.2304 40.5 21 40.5C31.7696 40.5 40.5 31.7696 40.5 21C40.5 10.2304 31.7696 1.5 21 1.5Z" fill="white"/>
<path fill-rule="evenodd" clip-rule="evenodd" d="M27.8193 13.6446L27.8112 13.6483L10.917 20.5114L10.9084 20.5145C10.9084 20.5145 10.9084 20.5145 10.9084 20.5145C10.9082 20.5145 10.9076 20.5148 10.9066 20.5151L10.892 20.5209C10.8777 20.5266 10.8553 20.536 10.8279 20.5489C10.7713 20.5754 10.7014 20.6128 10.637 20.6584C10.57 20.706 10.5291 20.7483 10.5094 20.7782C10.5047 20.7853 10.5022 20.7903 10.5009 20.7932C10.5095 20.852 10.5576 20.9325 10.6802 21.0224C10.7363 21.0635 10.7932 21.0954 10.8366 21.1168C10.8579 21.1273 10.8745 21.1347 10.8845 21.1389L10.8914 21.1417L14.7886 22.4996L25.3198 15.5739C25.4997 15.4609 25.6889 15.3786 25.8752 15.3481C26.0425 15.3208 26.3181 15.3213 26.5278 15.5286C26.7641 15.7622 26.7349 16.0672 26.6681 16.2526C26.6007 16.4395 26.4698 16.6086 26.3176 16.7557C26.0265 17.0368 20.0559 22.5968 18.2244 24.3013L24.6781 29.4255C24.8663 29.5018 24.9971 29.5071 25.0826 29.495C25.1767 29.4816 25.2539 29.4418 25.3213 29.386C25.3915 29.3277 25.4465 29.2555 25.4848 29.1929C25.4976 29.172 25.5077 29.1536 25.5152 29.139L28.4991 13.5613C28.4975 13.5365 28.4945 13.5195 28.4916 13.5084C28.4714 13.5034 28.4267 13.4961 28.346 13.5024C28.2286 13.5117 28.0977 13.545 27.9866 13.5816C27.9333 13.5991 27.8892 13.6159 27.8592 13.6279C27.8444 13.6339 27.8332 13.6386 27.8265 13.6415L27.8205 13.6441L27.8193 13.6446ZM28.4842 13.4904C28.4845 13.49 28.4861 13.492 28.4882 13.4975C28.485 13.4935 28.4839 13.4907 28.4842 13.4904ZM29.0003 13.6022H29.5003C29.5003 13.2217 29.3657 12.8866 29.0632 12.6826C28.7951 12.5017 28.4853 12.4884 28.2678 12.5055C28.0385 12.5235 27.8227 12.5827 27.6737 12.6318C27.597 12.6571 27.5328 12.6814 27.4869 12.6998C27.4638 12.7091 27.4452 12.7169 27.4316 12.7228L27.4183 12.7286L10.5587 19.5776L10.5543 19.5793C10.5451 19.5827 10.533 19.5874 10.5184 19.5933C10.4893 19.605 10.4497 19.6217 10.4033 19.6435C10.312 19.6863 10.1861 19.7523 10.0587 19.8426C9.83686 19.9999 9.44033 20.3559 9.50758 20.9094C9.56314 21.372 9.87258 21.6702 10.0887 21.8287C10.2033 21.9128 10.3132 21.9736 10.3938 22.0134C10.4346 22.0336 10.4693 22.0491 10.4952 22.06C10.5082 22.0655 10.519 22.0699 10.5274 22.0732L10.5382 22.0773L10.5422 22.0788L10.5438 22.0794L10.5448 22.0798C10.545 22.0799 10.5451 22.0799 10.718 21.6108L10.5448 22.0798L14.9257 23.6063L23.6928 17.8408C21.3837 19.9941 17.7581 23.3697 17.1123 23.9702L16.5863 24.4592L17.214 24.7759L24.1569 30.2885L24.2134 30.3141C24.574 30.4769 24.9125 30.5291 25.2229 30.4851C25.5326 30.4412 25.7771 30.3069 25.9593 30.156C26.1385 30.0075 26.2609 29.8403 26.3375 29.7152C26.3765 29.6516 26.4055 29.5958 26.4256 29.5539C26.4356 29.5329 26.4435 29.5152 26.4494 29.5014L26.4568 29.4838L26.4594 29.4773L26.4604 29.4747L26.4609 29.4736C26.461 29.4733 26.4613 29.4725 25.9949 29.2923L26.4613 29.4725L26.4775 29.4306L29.4914 13.6963L29.0003 13.6022ZM25.5305 29.107C25.5308 29.1062 25.5309 29.106 25.5305 29.107V29.107ZM10.894 21.1428C10.8945 21.143 10.8946 21.143 10.894 21.1428V21.1428Z" fill="white"/>
</svg>
