<svg width="32" height="32" viewBox="0 0 32 32" fill="none" xmlns="http://www.w3.org/2000/svg">
<path d="M12.7998 4.42665C11.7814 4.42666 10.7858 4.72884 9.93912 5.29496C9.09247 5.86107 8.43282 6.66566 8.04368 7.60687C7.65453 8.54808 7.55339 9.58358 7.75306 10.5823C7.95273 11.581 8.44423 12.498 9.16533 13.2173C9.88644 13.9365 10.8047 14.4256 11.804 14.6227C12.8032 14.8198 13.8384 14.716 14.7786 14.3244C15.7188 13.9328 16.5217 13.2711 17.0856 12.4229C17.6495 11.5748 17.9491 10.5785 17.9465 9.55999C17.9465 8.88474 17.8133 8.21614 17.5545 7.59246C17.2957 6.96879 16.9164 6.4023 16.4383 5.92545C15.9602 5.4486 15.3927 5.07076 14.7684 4.81357C14.144 4.55638 13.4751 4.4249 12.7998 4.42665ZM21.7998 14.6667C21.7207 14.6682 21.6444 14.6969 21.5837 14.7478C21.5231 14.7988 21.4817 14.8689 21.4665 14.9467L21.2265 16.64C20.8427 16.8026 20.4764 17.0036 20.1332 17.24L18.5332 16.6C18.4569 16.5871 18.3785 16.5966 18.3075 16.6274C18.2365 16.6581 18.1759 16.7088 18.1332 16.7733L16.7998 18.9867C16.7609 19.0536 16.7476 19.1323 16.7623 19.2083C16.777 19.2843 16.8188 19.3524 16.8798 19.4L18.2132 20.4533C18.1565 20.896 18.1565 21.344 18.2132 21.7867L16.8798 22.84C16.8198 22.8852 16.7784 22.951 16.7637 23.0248C16.7489 23.0985 16.7618 23.1751 16.7998 23.24L18.1332 25.4667C18.2132 25.64 18.3865 25.64 18.5332 25.64L20.1332 24.9867C20.4712 25.235 20.8384 25.441 21.2265 25.6L21.4665 27.2933C21.4795 27.371 21.5207 27.4412 21.5822 27.4904C21.6437 27.5396 21.7212 27.5644 21.7998 27.56H24.3732C24.4473 27.5579 24.5183 27.5302 24.5743 27.4816C24.6302 27.433 24.6675 27.3664 24.6798 27.2933L24.9198 25.6C25.2981 25.4296 25.6597 25.2243 25.9998 24.9867L27.5865 25.64C27.7465 25.64 27.9198 25.64 28.0132 25.4667L29.3465 23.24C29.3845 23.1751 29.3974 23.0985 29.3827 23.0248C29.3679 22.951 29.3266 22.8852 29.2665 22.84L27.9332 21.7867C27.9465 21.5691 27.9465 21.3509 27.9332 21.1333C27.9524 20.9204 27.9524 20.7062 27.9332 20.4933L29.2665 19.44C29.3254 19.3908 29.3654 19.3228 29.38 19.2475C29.3946 19.1723 29.3828 19.0942 29.3465 19.0267L28.0132 16.8133C27.9332 16.64 27.7598 16.64 27.5998 16.64L25.9998 17.3333C25.6597 17.092 25.2928 16.8906 24.9065 16.7333L24.6665 15.04C24.6601 14.9656 24.6267 14.8961 24.5727 14.8446C24.5187 14.793 24.4478 14.763 24.3732 14.76H21.9465M12.9465 17.3333C7.2665 17.3333 2.6665 19.6 2.6665 22.44V25H15.1065C14.5452 23.8142 14.2541 22.5186 14.2541 21.2067C14.2541 19.8947 14.5452 18.5991 15.1065 17.4133C14.3887 17.3436 13.6675 17.3169 12.9465 17.3333ZM23.0798 19.24C23.3463 19.2178 23.6145 19.2511 23.8675 19.3379C24.1204 19.4246 24.3526 19.5629 24.5494 19.744C24.7462 19.9251 24.9032 20.145 25.0107 20.3899C25.1181 20.6347 25.1736 20.8992 25.1736 21.1667C25.1736 21.4341 25.1181 21.6986 25.0107 21.9434C24.9032 22.1883 24.7462 22.4082 24.5494 22.5893C24.3526 22.7704 24.1204 22.9087 23.8675 22.9954C23.6145 23.0822 23.3463 23.1155 23.0798 23.0933C22.5965 23.0531 22.146 22.8327 21.8176 22.4758C21.4892 22.1189 21.3069 21.6516 21.3069 21.1667C21.3069 20.6817 21.4892 20.2144 21.8176 19.8575C22.146 19.5006 22.5965 19.2802 23.0798 19.24Z" fill="#1C1C1C"/>
</svg>
