<svg width="42" height="42" viewBox="0 0 42 42" fill="none" xmlns="http://www.w3.org/2000/svg">
<path fill-rule="evenodd" clip-rule="evenodd" d="M0.5 21C0.5 9.67816 9.67816 0.5 21 0.5C32.3218 0.5 41.5 9.67816 41.5 21C41.5 32.3218 32.3218 41.5 21 41.5C9.67816 41.5 0.5 32.3218 0.5 21ZM21 1.5C10.2304 1.5 1.5 10.2304 1.5 21C1.5 31.7696 10.2304 40.5 21 40.5C31.7696 40.5 40.5 31.7696 40.5 21C40.5 10.2304 31.7696 1.5 21 1.5Z" fill="white"/>
<path fill-rule="evenodd" clip-rule="evenodd" d="M9.48828 13.5H14.2542L14.2637 13.9904C14.372 19.6154 16.5439 22.1695 18.3618 22.9923V13.5H22.9071V18.9214C23.6692 18.6863 24.4616 18.1473 25.1776 17.3782C26.0627 16.4277 26.7844 15.1739 27.147 13.8664L27.2486 13.5H31.7849L31.6643 14.0988C31.361 15.604 30.7563 17.0298 29.8875 18.2868C29.1784 19.3129 28.3057 20.2086 27.3071 20.9376C28.4466 21.6253 29.4609 22.5119 30.3027 23.5584C31.3203 24.8234 32.0629 26.2936 32.4819 27.8717L32.6487 28.5H27.7148L27.6139 28.1323C27.2793 26.9131 26.5997 25.8231 25.6618 24.9983C24.8691 24.3012 23.9217 23.8196 22.9071 23.5921V28.5H21.9811C18.0969 28.5 14.9979 27.1366 12.8562 24.602C10.7254 22.0802 9.58951 18.4555 9.4987 14.0102L9.48828 13.5ZM10.5138 14.5C10.6752 18.5569 11.7607 21.756 13.6201 23.9566C15.5328 26.2203 18.3107 27.4828 21.9071 27.4998V22.4287L22.4708 22.5011C23.8963 22.6842 25.236 23.2921 26.3222 24.2474C27.3127 25.1184 28.0521 26.2427 28.4672 27.5H31.3278C30.9275 26.2945 30.3167 25.1712 29.5235 24.1851C28.5941 23.0298 27.4356 22.0892 26.1249 21.425L25.3307 21.0225L26.0877 20.5538C27.2601 19.828 28.2738 18.8629 29.0649 17.7182C29.74 16.7413 30.2405 15.6518 30.5447 14.5H28.0004C27.5681 15.8318 26.8174 17.0846 25.9095 18.0597C24.9258 19.1162 23.7099 19.8956 22.4616 20.0326L21.9071 20.0934V14.5H19.3618V24.3412L18.7383 24.1822C16.3055 23.5619 13.5342 20.7087 13.2786 14.5H10.5138Z" fill="white"/>
</svg>
